<?xml version="1.0" standalone="no"?><!DOCTYPE svg PUBLIC "-//W3C//DTD SVG 1.1//EN" "http://www.w3.org/Graphics/SVG/1.1/DTD/svg11.dtd"><svg t="1698084568370" class="icon" viewBox="0 0 1024 1024" version="1.1" xmlns="http://www.w3.org/2000/svg" p-id="9391" xmlns:xlink="http://www.w3.org/1999/xlink" width="200" height="200"><path d="M163.93 694.68s20.35 25.48 155.99-4.16 145.78 22.08 237.05 16c91.27-6.08 146.95-31.44 223.1-31.44 51.72 0 74.8 5.17 79.87 9.54 5.07 4.37-130.81 218.61-353.97 212.16-280.92-8.13-342.04-202.1-342.04-202.1z" fill="#68AB32" opacity=".5" p-id="9392"></path><path d="M512 104c-225.36 0-408 182.64-408 408s182.64 408 408 408 408-182.64 408-408-182.64-408-408-408z m0 771.2c-200.58 0-363.2-162.62-363.2-363.2S311.42 148.8 512 148.8 875.2 311.42 875.2 512 712.58 875.2 512 875.2z" fill="#1E8FC1" p-id="9393"></path><path d="M377.92 648.64c-10.72 0-13.76 1.44-14.56-10.24l-0.8-12.48c-4.56-49.76-26.08-70.96-32.16-70.96-5.36 0-34.48 17.6-40.64 77.6-2.32 15.36-0.8 15.36-14.56 15.36h-22.96c-4.56 0-12.24 1.44-12.24-4.4 0-76.08 60.56-106.88 60.56-122.96 0-18.32-47.52-37.36-47.52-109.04 0-8.8 7.68-8.08 15.36-8.08h33.76c7.68 0.72 6.88-1.44 8.4 19.76 3.84 50.48 22.24 68.8 28.32 68.8 10.72 0 25.28-36.56 25.28-61.44 0-3.68-0.8-19.76-0.8-21.2 0-8.08 9.2-5.84 12.24-5.84h24.56c13.76 0 13.76 5.84 13.76 17.6 0 70.96-41.36 83.44-41.36 99.52 0 13.92 48.32 46.08 48.32 118.56 0 10.24-1.52 8.8-12.24 8.8H378v0.64h-0.08zM620.8 525.6c0-83.76 36.88-122.4 77.52-122.4 40.64 0 77.52 39.36 77.52 123.12s-36.88 122.4-77.52 122.4c-40.64 0-77.52-38.64-77.52-123.12z m110.64-4.4c0-69.2-18.08-78.64-33.84-78.64-15.84 0-33.84 9.44-33.84 78.64 0 57.52 18.08 75.76 33.84 75.76 15.76 0 33.84-18.24 33.84-75.76zM581.6 566.4h-124v-26.72h124v26.72z m-0.16-82.32H457.6V457.6h123.84v26.48z m0 0" fill="#1E8FC1" p-id="9394"></path></svg>