<?xml version="1.0" standalone="no"?><!DOCTYPE svg PUBLIC "-//W3C//DTD SVG 1.1//EN" "http://www.w3.org/Graphics/SVG/1.1/DTD/svg11.dtd"><svg t="1697387089377" class="icon" viewBox="0 0 1024 1024" version="1.1" xmlns="http://www.w3.org/2000/svg" p-id="2606" xmlns:xlink="http://www.w3.org/1999/xlink" width="200" height="200"><path d="M564.864 202.29632l27.6224-28.12928 276.91008 271.93856-27.62752 28.12928zM164.46464 445.75744l276.86912-271.93856 27.6224 28.12416-276.864 271.93856zM543.85664 587.7504l32.11264-22.87616 225.1776 316.1088-32.11264 22.87104zM227.79392 881.02912l225.1776-316.06272 32.1024 22.87104-225.17248 316.06784zM494.592 202.752h39.424v212.48h-39.424z" fill="#F59D0D" p-id="2607"></path><path d="M514.56 123.904m-113.664 0a113.664 113.664 0 1 0 227.328 0 113.664 113.664 0 1 0-227.328 0Z" fill="#343399" p-id="2608"></path><path d="M123.904 509.44m-108.544 0a108.544 108.544 0 1 0 217.088 0 108.544 108.544 0 1 0-217.088 0Z" fill="#343399" p-id="2609"></path><path d="M514.56 509.44m-108.544 0a108.544 108.544 0 1 0 217.088 0 108.544 108.544 0 1 0-217.088 0Z" fill="#343399" p-id="2610"></path><path d="M905.216 509.44m-108.544 0a108.544 108.544 0 1 0 217.088 0 108.544 108.544 0 1 0-217.088 0Z" fill="#343399" p-id="2611"></path><path d="M791.552 909.824m-98.816 0a98.816 98.816 0 1 0 197.632 0 98.816 98.816 0 1 0-197.632 0Z" fill="#343399" p-id="2612"></path><path d="M237.568 909.824m-98.816 0a98.816 98.816 0 1 0 197.632 0 98.816 98.816 0 1 0-197.632 0Z" fill="#343399" p-id="2613"></path></svg>